<svg xmlns="http://www.w3.org/2000/svg" width="33" height="33" viewBox="0 0 33 33">
  <g id="medium" transform="translate(19824 22723.098)">
    <rect id="Rectangle_7727" data-name="Rectangle 7727" width="33" height="33" rx="4" transform="translate(-19824 -22723.098)"/>
    <g id="Medium-Logo-Black-RGB" transform="translate(-19819.332 -22713.24)">
      <path id="Path_62997" data-name="Path 62997" d="M19.094,18.382a6.647,6.647,0,1,1-6.647-6.692,6.67,6.67,0,0,1,6.647,6.692" transform="translate(-5.8 -11.69)" fill="#fff"/>
      <path id="Path_62998" data-name="Path 62998" d="M630.007,35.38c0,3.479-1.488,6.3-3.324,6.3s-3.323-2.821-3.323-6.3,1.488-6.3,3.323-6.3,3.324,2.821,3.324,6.3" transform="translate(-609.421 -28.687)" fill="#fff"/>
      <path id="Path_62999" data-name="Path 62999" d="M948.758,63.764c0,3.117-.523,5.644-1.169,5.644s-1.169-2.528-1.169-5.644.523-5.644,1.169-5.644,1.169,2.527,1.169,5.644" transform="translate(-925.19 -57.072)" fill="#fff"/>
    </g>
  </g>
</svg>
