<svg xmlns="http://www.w3.org/2000/svg" width="32.879" height="32.879" viewBox="0 0 32.879 32.879">
  <g id="quora" transform="translate(19796.936 22701.902)">
    <g id="Group_43095" data-name="Group 43095" transform="translate(-19796.936 -22701.902)">
      <rect id="Rectangle_17" data-name="Rectangle 17" width="32.879" height="32.879" rx="4" fill="#b92b27"/>
    </g>
    <path id="quora-2" data-name="quora" d="M27.234,16.158s-.1,1.478-1.444,1.478c-1.038,0-1.746-.791-2.41-1.819a9.063,9.063,0,0,0,3.082-6.847A8.838,8.838,0,0,0,17.761,0a8.838,8.838,0,0,0-8.7,8.969,8.838,8.838,0,0,0,8.7,8.969,8.458,8.458,0,0,0,2.508-.379c1,1.6,2.281,3.032,4.277,3.032,4.065,0,4.233-4.433,4.233-4.433H27.234Zm-9.473.3c-2.8,0-5.072-3.354-5.072-7.491s2.271-7.491,5.072-7.491,5.072,3.354,5.072,7.491a10.03,10.03,0,0,1-.968,4.4,4.619,4.619,0,0,0-2.693-2.084,5.62,5.62,0,0,0-4.468.941l.537,1.109a2.83,2.83,0,0,1,1.891,0c.849.2,1.509,1.375,2.265,2.726A3.618,3.618,0,0,1,17.761,16.46Z" transform="translate(-19798.855 -22695.758)" fill="#fff"/>
  </g>
</svg>
