<svg id="twitter" xmlns="http://www.w3.org/2000/svg" width="32.879" height="32.879" viewBox="0 0 32.879 32.879">
  <rect id="Rectangle_17" data-name="Rectangle 17" width="32.879" height="32.879" rx="4" fill="#1aa1f1"/>
  <path id="twitter-2" data-name="twitter" d="M18.478,5.456a7,7,0,0,1-1.944.527,3.4,3.4,0,0,0,1.491-1.87,6.764,6.764,0,0,1-2.15.824,3.378,3.378,0,0,0-5.767,3.081A9.59,9.59,0,0,1,3.145,4.484,3.427,3.427,0,0,0,2.692,6.19,3.37,3.37,0,0,0,4.192,9a3.337,3.337,0,0,1-1.532-.42V8.62a3.378,3.378,0,0,0,2.719,3.3,3.238,3.238,0,0,1-.906.14A4.037,4.037,0,0,1,3.837,12a3.386,3.386,0,0,0,3.155,2.34,6.772,6.772,0,0,1-4.169,1.45A6.533,6.533,0,0,1,2,15.738a9.532,9.532,0,0,0,5.182,1.524A9.549,9.549,0,0,0,16.83,7.64V7.2a6.945,6.945,0,0,0,1.648-1.747Z" transform="translate(6.313 5.752)" fill="#fff"/>
</svg>
