<svg id="youtube" xmlns="http://www.w3.org/2000/svg" width="32.879" height="32.879" viewBox="0 0 32.879 32.879">
  <rect id="Rectangle_17" data-name="Rectangle 17" width="32.879" height="32.879" rx="4" fill="red"/>
  <path id="youtube-2" data-name="youtube" d="M19.124,8.75a7,7,0,0,0-.75-3.4,2.406,2.406,0,0,0-1.417-.824,64.561,64.561,0,0,0-6.9-.255,64.629,64.629,0,0,0-6.871.247,2.365,2.365,0,0,0-1.2.61,4.251,4.251,0,0,0-.906,2.842,39.784,39.784,0,0,0,0,5.339,7.868,7.868,0,0,0,.247,1.648,2.587,2.587,0,0,0,.585,1.12,2.356,2.356,0,0,0,1.228.643,37.222,37.222,0,0,0,5.355.272c2.884.041,5.413,0,8.4-.231a2.373,2.373,0,0,0,1.261-.643,2.051,2.051,0,0,0,.5-.824,8.717,8.717,0,0,0,.428-2.8C19.124,12.029,19.124,9.244,19.124,8.75ZM8.2,12.985v-5.1l4.877,2.562C11.709,11.2,9.9,12.062,8.2,12.985Z" transform="translate(6.598 5.561)" fill="#fff"/>
</svg>
